<?xml version="1.0" encoding="UTF-8" standalone="no"?>
<!-- Created with Inkscape (http://www.inkscape.org/) -->

<svg
   xmlns:dc="http://purl.org/dc/elements/1.1/"
   xmlns:cc="http://creativecommons.org/ns#"
   xmlns:rdf="http://www.w3.org/1999/02/22-rdf-syntax-ns#"
   xmlns:svg="http://www.w3.org/2000/svg"
   xmlns="http://www.w3.org/2000/svg"
   xmlns:xlink="http://www.w3.org/1999/xlink"
   xmlns:sodipodi="http://sodipodi.sourceforge.net/DTD/sodipodi-0.dtd"
   xmlns:inkscape="http://www.inkscape.org/namespaces/inkscape"
   width="326.06882mm"
   height="326.06882mm"
   viewBox="0 0 326.06882 326.06882"
   version="1.1"
   id="svg1381"
   inkscape:version="0.92.5 (2060ec1f9f, 2020-04-08)"
   sodipodi:docname="logo_final.svg">
  <defs
     id="defs1375">
    <linearGradient
       inkscape:collect="always"
       xlink:href="#linearGradient4071"
       id="linearGradient1308"
       x1="766.63232"
       y1="3287.9509"
       x2="766.63232"
       y2="3469.0527"
       gradientUnits="userSpaceOnUse" />
    <linearGradient
       inkscape:collect="always"
       id="linearGradient4071">
      <stop
         style="stop-color:#72b9ff;stop-opacity:1;"
         offset="0"
         id="stop4067" />
      <stop
         style="stop-color:#005cb6;stop-opacity:1"
         offset="1"
         id="stop4069" />
    </linearGradient>
    <linearGradient
       inkscape:collect="always"
       xlink:href="#linearGradient4079"
       id="linearGradient1294"
       gradientUnits="userSpaceOnUse"
       gradientTransform="translate(438.53584,724.20238)"
       x1="298.43741"
       y1="2536.7998"
       x2="311.86371"
       y2="2565.9041" />
    <linearGradient
       inkscape:collect="always"
       id="linearGradient4079">
      <stop
         style="stop-color:#ffffff;stop-opacity:1;"
         offset="0"
         id="stop4075" />
      <stop
         style="stop-color:#cacaca;stop-opacity:1"
         offset="1"
         id="stop4077" />
    </linearGradient>
    <linearGradient
       inkscape:collect="always"
       xlink:href="#linearGradient1431"
       id="linearGradient1296"
       gradientUnits="userSpaceOnUse"
       gradientTransform="matrix(0.99407597,0.37195176,-0.37195176,0.99407597,724.42461,3128.8659)"
       x1="118.84908"
       y1="40.297379"
       x2="148.61057"
       y2="70.626724" />
    <linearGradient
       id="linearGradient1431"
       inkscape:collect="always">
      <stop
         id="stop1427"
         offset="0"
         style="stop-color:#e7ab00;stop-opacity:1" />
      <stop
         id="stop1429"
         offset="1"
         style="stop-color:#cc6300;stop-opacity:1" />
    </linearGradient>
    <linearGradient
       inkscape:collect="always"
       xlink:href="#linearGradient3332"
       id="linearGradient1298"
       gradientUnits="userSpaceOnUse"
       gradientTransform="matrix(0.99407597,0.37195176,-0.37195176,0.99407597,724.42461,3128.8659)"
       x1="121.13902"
       y1="28.663227"
       x2="153.77573"
       y2="61.148327" />
    <linearGradient
       inkscape:collect="always"
       id="linearGradient3332">
      <stop
         style="stop-color:#818181;stop-opacity:1"
         offset="0"
         id="stop3328" />
      <stop
         style="stop-color:#3e3e3e;stop-opacity:1"
         offset="1"
         id="stop3330" />
    </linearGradient>
    <linearGradient
       inkscape:collect="always"
       xlink:href="#linearGradient4071"
       id="linearGradient1300"
       gradientUnits="userSpaceOnUse"
       gradientTransform="translate(438.53584,724.20238)"
       x1="304.63071"
       y1="2538.5967"
       x2="314.97604"
       y2="2563.4526" />
  </defs>
  <sodipodi:namedview
     id="base"
     pagecolor="#ffffff"
     bordercolor="#666666"
     borderopacity="1.0"
     inkscape:pageopacity="0.0"
     inkscape:pageshadow="2"
     inkscape:zoom="0.35"
     inkscape:cx="746.19306"
     inkscape:cy="381.90729"
     inkscape:document-units="mm"
     inkscape:current-layer="layer1"
     showgrid="false"
     fit-margin-top="0"
     fit-margin-left="0"
     fit-margin-right="0"
     fit-margin-bottom="0"
     inkscape:window-width="1848"
     inkscape:window-height="1016"
     inkscape:window-x="72"
     inkscape:window-y="27"
     inkscape:window-maximized="1" />
  <metadata
     id="metadata1378">
    <rdf:RDF>
      <cc:Work
         rdf:about="">
        <dc:format>image/svg+xml</dc:format>
        <dc:type
           rdf:resource="http://purl.org/dc/dcmitype/StillImage" />
        <dc:title></dc:title>
      </cc:Work>
    </rdf:RDF>
  </metadata>
  <g
     inkscape:label="Layer 1"
     inkscape:groupmode="layer"
     id="layer1"
     transform="translate(228.80227,76.18918)">
    <g
       transform="translate(-825.77189,-3197.364)"
       id="g1326"
       inkscape:export-xdpi="77.89769"
       inkscape:export-ydpi="77.89769">
      <circle
         r="163.03441"
         cy="3284.2092"
         cx="760.00403"
         id="circle1260"
         style="opacity:1;fill:url(#linearGradient1308);fill-opacity:1;stroke:none;stroke-width:8.90510941;stroke-linecap:round;stroke-linejoin:round;stroke-miterlimit:4;stroke-dasharray:none;stroke-opacity:1"
         inkscape:export-xdpi="77.89769"
         inkscape:export-ydpi="77.89769" />
      <path
         inkscape:export-ydpi="77.89769"
         inkscape:export-xdpi="77.89769"
         inkscape:transform-center-y="-20.763056"
         inkscape:transform-center-x="35.246999"
         style="fill:none;stroke:#000000;stroke-width:10;stroke-linecap:round;stroke-linejoin:round;stroke-miterlimit:4;stroke-dasharray:none;stroke-opacity:1"
         d="m 725.34535,3286.5205 -44.11454,-14.4137 13.66174,-44.1919 -20.59193,-6.6763"
         id="path1262"
         inkscape:connector-curvature="0"
         sodipodi:nodetypes="cccc" />
      <path
         inkscape:export-ydpi="77.89769"
         inkscape:export-xdpi="77.89769"
         inkscape:connector-curvature="0"
         id="path1264"
         d="m 789.87552,3251.9511 22.92406,42.2179 40.56755,2.6523 11.81063,15.1198"
         style="fill:none;stroke:#000000;stroke-width:10.61383629;stroke-linecap:round;stroke-linejoin:round;stroke-miterlimit:4;stroke-dasharray:none;stroke-opacity:1"
         sodipodi:nodetypes="cccc" />
      <path
         inkscape:export-ydpi="77.89769"
         inkscape:export-xdpi="77.89769"
         inkscape:connector-curvature="0"
         style="fill:url(#linearGradient1294);fill-opacity:1;stroke-width:0.28082439"
         d="m 707.32173,3275.9504 a 7.4895869,7.4895869 0 0 0 -3.31487,9.7248 l 7.31498,16.0618 a 7.4895869,7.4895869 0 0 0 9.5132,3.8804 l 89.28474,-34.1341 -18.43561,-40.48 z"
         id="path1266" />
      <path
         inkscape:export-ydpi="77.89769"
         inkscape:export-xdpi="77.89769"
         inkscape:connector-curvature="0"
         style="fill:url(#linearGradient1296);fill-opacity:1;stroke-width:0.28082439"
         d="m 826.35887,3204.3148 -8.17551,3.7234 26.65593,58.5296 8.17649,-3.7259 z"
         id="path1268" />
      <path
         inkscape:export-ydpi="77.89769"
         inkscape:export-xdpi="77.89769"
         sodipodi:nodetypes="cccccccccccccc"
         style="fill:url(#linearGradient1298);fill-opacity:1;stroke:none;stroke-width:0.28082439;stroke-opacity:1"
         inkscape:connector-curvature="0"
         d="m 817.39447,3208.3996 c -8.61645,3.9242 -14.55663,11.2094 -17.21876,19.5743 l 17.8055,39.0868 c 8.05324,3.487 17.45108,3.7891 26.0695,-0.1403 l 0.79055,-0.3578 -26.6579,-58.5244 z m 52.34609,11.4906 c -7.35902,-16.1629 -26.42871,-23.2982 -42.59016,-15.9359 l -0.79054,0.3579 26.65592,58.5297 0.78791,-0.3589 c 16.16297,-7.359 23.29824,-26.4287 15.93589,-42.5901 z"
         class="fa-primary"
         id="path1270" />
      <path
         inkscape:export-ydpi="77.89769"
         inkscape:export-xdpi="77.89769"
         inkscape:connector-curvature="0"
         style="fill:url(#linearGradient1300);fill-opacity:1;stroke-width:0.28082436"
         d="m 786.74603,3233.5491 -4.42038,2.3551 17.82423,39.275 4.67775,-1.792 z m -9.54668,5.0861 -4.42146,2.3553 17.27284,38.0577 4.67725,-1.7915 z m -9.54775,5.0872 -4.42089,2.3553 16.72041,36.84 4.67721,-1.792 z m -9.54669,5.0858 -4.42143,2.3558 16.16849,35.6227 4.67673,-1.7914 z m -9.54722,5.0871 -4.42092,2.3554 15.61403,34.4035 2.75333,-1.0525 1.92495,-0.7374 z m -9.54722,5.0864 -4.4209,2.3556 15.05903,33.1793 4.67824,-1.7886 z m -9.54719,5.0866 -4.42093,2.3553 14.5035,31.9553 4.67879,-1.7885 z m -9.54724,5.0866 -4.42092,2.3553 13.94747,30.7309 4.6793,-1.7884 z m -9.54722,5.0869 -3.04684,1.6232 a 7.4895868,7.4895868 0 0 0 -1.30587,0.8816 l 13.25345,29.2002 a 7.4895868,7.4895868 0 0 0 1.5658,-0.4149 l 3.18326,-1.217 z"
         id="path1272" />
      <path
         inkscape:export-ydpi="77.89769"
         inkscape:export-xdpi="77.89769"
         inkscape:transform-center-y="6.294652"
         inkscape:transform-center-x="41.456492"
         sodipodi:nodetypes="cccc"
         inkscape:connector-curvature="0"
         id="path1274"
         d="m 718.26638,3295.8911 -47.62989,7.5287 -13.57779,-45.3659 -17.39233,8.3042"
         style="fill:none;stroke:#000000;stroke-width:10;stroke-linecap:round;stroke-linejoin:round;stroke-miterlimit:4;stroke-dasharray:none;stroke-opacity:1" />
      <path
         inkscape:export-ydpi="77.89769"
         inkscape:export-xdpi="77.89769"
         sodipodi:nodetypes="cccc"
         style="fill:none;stroke:#000000;stroke-width:10.61383629;stroke-linecap:round;stroke-linejoin:round;stroke-miterlimit:4;stroke-dasharray:none;stroke-opacity:1"
         d="m 778.84855,3261.0654 22.4516,43.8676 47.24736,-3.4121 16.01591,10.7483"
         id="path1276"
         inkscape:connector-curvature="0" />
      <path
         sodipodi:nodetypes="cccccccccccccccccccccccccccccccccccccccccccccccccccccccccccccccccccccccccccccccccccccccccccccccccccccccccccccccccccccccccccccccccccccccccccccccccccccc"
         inkscape:connector-curvature="0"
         style="opacity:1;fill:#ffffff;fill-opacity:1;stroke:none;stroke-width:8.90510941;stroke-linecap:round;stroke-linejoin:round;stroke-miterlimit:4;stroke-dasharray:none;stroke-opacity:1"
         d="m 810.96912,3350.8577 c -2.32378,0.039 -4.68218,0.9148 -6.60787,2.4469 -9.24448,7.3227 -25.40056,7.8889 -35.82003,1.4129 -0.73626,-0.4676 -1.44687,-0.9631 -2.12132,-1.4925 -0.0804,-0.063 -0.16257,-0.1233 -0.24443,-0.1839 -0.0773,-0.062 -0.1557,-0.1234 -0.23203,-0.1866 -2.35538,-1.9541 -5.43517,-2.3541 -8.30698,-1.5735 -1.41894,0.3373 -2.77775,0.9823 -3.96927,1.944 -10.02771,8.0434 -28.36365,8.0434 -38.5501,-0.3968 -3.57188,-2.9634 -8.73105,-2.4075 -12.35583,0.4764 -9.24498,7.3231 -25.40221,7.8889 -35.82158,1.4118 -0.73571,-0.4672 -1.44582,-0.9624 -2.11977,-1.4914 -0.0828,-0.065 -0.16737,-0.1273 -0.25167,-0.1896 -0.0749,-0.06 -0.15081,-0.1196 -0.22479,-0.1809 -2.35495,-1.9537 -5.43409,-2.354 -8.30543,-1.574 -1.4197,0.3372 -2.77878,0.9824 -3.97085,1.9445 -10.0277,8.0434 -28.3636,8.0434 -38.5501,-0.3968 -0.5301,-0.4398 -1.0952,-0.8017 -1.6851,-1.0904 3.76988,8.3087 8.23057,16.2863 13.3351,23.8487 3.6034,0.5431 7.2782,0.7125 10.9166,0.509 0.4278,0.1162 0.8817,0.1633 1.3519,0.1219 7.2711,-0.6311 14.1785,-2.8076 20.15222,-6.3386 0.28737,-0.1684 0.57335,-0.3391 0.85574,-0.5142 0.36881,0.2259 0.74248,0.4443 1.11882,0.6589 0.0288,0.016 0.0575,0.033 0.0863,0.049 0.34399,0.195 0.69033,0.3864 1.04026,0.572 0.16042,0.086 0.32303,0.1682 0.48472,0.2522 0.0782,0.04 0.15618,0.081 0.23461,0.1204 5.48322,2.8083 11.66545,4.6155 17.96378,5.1739 0.45294,0.04 0.89172,-10e-5 1.30585,-0.107 10.1034,0.6078 20.39755,-1.6552 28.5657,-6.7195 8.27503,5.0676 18.49558,7.2879 28.44064,6.7314 0.42764,0.116 0.88144,0.1628 1.35134,0.1214 7.26956,-0.631 14.17583,-2.8069 20.14864,-6.3365 0.28872,-0.1691 0.57569,-0.3404 0.85938,-0.5163 0.3688,0.2259 0.74244,0.4443 1.11879,0.6589 0.0288,0.016 0.0575,0.033 0.0863,0.049 0.34398,0.195 0.69031,0.3864 1.04025,0.572 0.16042,0.086 0.32303,0.1682 0.48472,0.2522 0.0782,0.04 0.15619,0.081 0.23461,0.1204 5.4832,2.8083 11.66545,4.6155 17.96376,5.1739 0.45294,0.04 0.89177,-1e-4 1.30587,-0.107 10.10357,0.6079 20.39746,-1.6552 28.5657,-6.7195 8.27488,5.0675 18.49522,7.2873 28.44012,6.7309 0.42783,0.1161 0.88175,0.1633 1.35186,0.1219 7.27114,-0.6311 14.17854,-2.8077 20.15225,-6.3386 0.28737,-0.1684 0.57338,-0.3391 0.85576,-0.5142 0.3688,0.2259 0.74246,0.4443 1.1188,0.6589 0.0288,0.016 0.0575,0.033 0.0863,0.049 0.34399,0.195 0.69031,0.3864 1.04025,0.572 0.16041,0.086 0.32304,0.1682 0.48472,0.2522 0.0782,0.04 0.15619,0.081 0.23461,0.1204 5.48322,2.8083 11.66543,4.6155 17.96376,5.1739 0.45294,0.04 0.89174,-10e-5 1.30587,-0.107 3.71125,0.2232 7.44806,0.058 11.09596,-0.4904 5.02787,-7.5039 9.42343,-15.4126 13.14132,-23.6446 -0.75732,0.367 -1.48209,0.821 -2.15388,1.3555 -9.24499,7.323 -25.40222,7.8888 -35.82158,1.4118 -0.73571,-0.4673 -1.44579,-0.9624 -2.11977,-1.4914 -0.0828,-0.065 -0.16736,-0.1273 -0.25166,-0.1896 -0.0748,-0.06 -0.15082,-0.1196 -0.2248,-0.1809 -2.35494,-1.9537 -5.43404,-2.354 -8.30543,-1.5741 -1.41967,0.3372 -2.77876,0.9825 -3.97082,1.9446 -10.02771,8.0434 -28.36365,8.0434 -38.5501,-0.3969 -1.67433,-1.389 -3.69761,-2.0051 -5.74797,-1.9704 z m 0,38.1 c -2.32378,0.039 -4.68218,0.9148 -6.60787,2.4469 -9.26015,7.3351 -25.45564,7.8912 -35.87326,1.3803 -0.0931,-0.06 -0.18689,-0.1182 -0.27905,-0.1788 -0.0584,-0.038 -0.11718,-0.075 -0.17518,-0.1127 -0.55616,-0.3715 -1.09491,-0.761 -1.61386,-1.1684 -0.0804,-0.063 -0.16257,-0.1233 -0.24443,-0.1839 -0.0773,-0.062 -0.1557,-0.1234 -0.23203,-0.1866 -2.35538,-1.9541 -5.43517,-2.3541 -8.30698,-1.5735 -1.41894,0.3373 -2.77775,0.9823 -3.96927,1.944 -10.02771,8.0434 -28.36365,8.0434 -38.5501,-0.3968 -3.57188,-2.9634 -8.73105,-2.4075 -12.35583,0.4764 -9.26036,7.3352 -25.45624,7.891 -35.87379,1.3798 -0.0929,-0.059 -0.18655,-0.1179 -0.27852,-0.1783 -0.0584,-0.038 -0.11719,-0.075 -0.17518,-0.1127 -0.55616,-0.3715 -1.09488,-0.7611 -1.61386,-1.1684 -0.0828,-0.065 -0.16737,-0.1273 -0.25167,-0.1896 -0.0749,-0.06 -0.15081,-0.1196 -0.22479,-0.1809 -2.35495,-1.9537 -5.43409,-2.354 -8.30543,-1.574 -1.4197,0.3372 -2.77878,0.9824 -3.97085,1.9445 -2.8937,2.3211 -6.4808,3.9678 -10.3627,4.9398 4.30198,4.573 8.86453,8.8936 13.66484,12.9403 0.75251,-0.3888 1.49252,-0.7972 2.21848,-1.2263 0.28737,-0.1684 0.57335,-0.3391 0.85574,-0.5142 0.36881,0.2259 0.74248,0.4443 1.11882,0.6589 0.0288,0.016 0.0575,0.033 0.0863,0.049 0.34399,0.195 0.69033,0.3864 1.04026,0.572 0.16042,0.086 0.32303,0.1682 0.48472,0.2522 0.0782,0.04 0.15618,0.081 0.23461,0.1204 5.48322,2.8083 11.66545,4.6155 17.96378,5.1739 0.45294,0.04 0.89172,-1e-4 1.30585,-0.107 10.1034,0.6077 20.39755,-1.6552 28.5657,-6.7195 8.27503,5.0675 18.49558,7.2879 28.44064,6.7314 0.42764,0.116 0.88144,0.1627 1.35134,0.1214 7.26956,-0.631 14.17583,-2.8069 20.14864,-6.3365 0.28872,-0.1692 0.57569,-0.3404 0.85938,-0.5163 0.3688,0.2258 0.74244,0.4443 1.11879,0.6589 0.0288,0.016 0.0575,0.033 0.0863,0.049 0.34398,0.195 0.69031,0.3864 1.04025,0.572 0.16042,0.086 0.32303,0.1682 0.48472,0.2522 0.0782,0.04 0.15619,0.081 0.23461,0.1204 5.4832,2.8083 11.66545,4.6155 17.96376,5.1739 0.45294,0.04 0.89177,-2e-4 1.30587,-0.107 10.10357,0.6078 20.39746,-1.6552 28.5657,-6.7195 8.27488,5.0674 18.49522,7.2873 28.44012,6.7309 0.42783,0.1161 0.88175,0.1632 1.35186,0.1219 7.27114,-0.6312 14.17854,-2.8077 20.15225,-6.3386 0.28737,-0.1684 0.57338,-0.3391 0.85576,-0.5142 0.3688,0.2258 0.74246,0.4443 1.1188,0.6589 0.0288,0.016 0.0575,0.033 0.0863,0.049 0.34399,0.195 0.69031,0.3864 1.04025,0.572 0.16041,0.086 0.32304,0.1682 0.48472,0.2522 0.0632,0.033 0.1264,0.065 0.18965,0.097 4.79441,-4.0323 9.35243,-8.3375 13.65137,-12.8943 -2.91703,-0.7533 -5.68231,-1.8872 -8.12716,-3.4153 -0.0929,-0.059 -0.18656,-0.1178 -0.27853,-0.1783 -0.0584,-0.038 -0.1172,-0.075 -0.17518,-0.1126 -0.55616,-0.3716 -1.09488,-0.7611 -1.61386,-1.1684 -0.0828,-0.065 -0.16736,-0.1274 -0.25166,-0.1897 -0.0748,-0.06 -0.15082,-0.1196 -0.2248,-0.1809 -2.35494,-1.9537 -5.43404,-2.354 -8.30543,-1.574 -1.41967,0.3372 -2.77876,0.9824 -3.97082,1.9446 -10.02771,8.0433 -28.36365,8.0433 -38.5501,-0.3969 -1.67433,-1.3891 -3.69761,-2.0052 -5.74797,-1.9704 z m -48.10661,58.184 c 21.37951,-0.4176 42.46803,-5.037 62.06442,-13.595 -3.03852,-1.0547 -5.84421,-2.5591 -8.20983,-4.5191 -1.67433,-1.3891 -3.69761,-2.0052 -5.74797,-1.9705 l -10e-6,6e-4 c -2.32378,0.039 -4.68218,0.9148 -6.60787,2.4469 -9.26015,7.3351 -25.45564,7.8912 -35.87326,1.3803 -0.0931,-0.06 -0.18689,-0.1182 -0.27905,-0.1788 -0.0584,-0.038 -0.11718,-0.075 -0.17518,-0.1127 -0.55616,-0.3715 -1.09491,-0.761 -1.61386,-1.1684 -0.0804,-0.063 -0.16257,-0.1233 -0.24443,-0.1839 -0.0773,-0.062 -0.1557,-0.1234 -0.23203,-0.1866 -2.35538,-1.9541 -5.43517,-2.3541 -8.30698,-1.5735 -1.41894,0.3373 -2.77775,0.9823 -3.96927,1.944 -10.02771,8.0434 -28.36365,8.0434 -38.5501,-0.3968 -3.57188,-2.9634 -8.73105,-2.4075 -12.35583,0.4764 -2.24406,1.7775 -4.89759,3.1533 -7.77525,4.1305 19.69287,8.5533 40.88123,13.1327 62.34866,13.4752 z"
         id="path1278"
         inkscape:export-xdpi="77.89769"
         inkscape:export-ydpi="77.89769" />
      <g
         inkscape:export-ydpi="77.89769"
         inkscape:export-xdpi="77.89769"
         transform="translate(1659.8121,1545.5446)"
         id="g1286">
        <path
           inkscape:connector-curvature="0"
           id="path1280"
           d="m -866.26093,1663.8754 c -21.10434,11.0289 -18.49444,-18.5962 0,0 z"
           style="fill:#ffffff;fill-opacity:1;stroke:none;stroke-width:0.16214535px;stroke-linecap:butt;stroke-linejoin:miter;stroke-opacity:1" />
        <path
           style="fill:#ffffff;fill-opacity:1;stroke:none;stroke-width:0.16214535px;stroke-linecap:butt;stroke-linejoin:miter;stroke-opacity:1"
           d="m -853.89823,1645.5573 c -23.43261,-4.2359 -3.19864,-26.0313 0,0 z"
           id="path1282"
           inkscape:connector-curvature="0" />
        <path
           inkscape:connector-curvature="0"
           id="path1284"
           d="m -832.50909,1640.6915 c -12.21497,-20.4408 17.51071,-19.5253 0,0 z"
           style="fill:#ffffff;fill-opacity:1;stroke:none;stroke-width:0.16214535px;stroke-linecap:butt;stroke-linejoin:miter;stroke-opacity:1" />
      </g>
      <path
         inkscape:export-ydpi="77.89769"
         inkscape:export-xdpi="77.89769"
         id="path1292"
         d="m 840.466,3201.0538 c -0.0768,2e-4 -0.15367,0 -0.23047,0 l 0.88109,1.9027 -2.16009,1.0005 -1.00147,-2.1617 1.5689,-0.7271 c -0.23019,0.01 -0.46051,0.017 -0.69094,0.029 l -0.98906,0.4583 -0.17262,-0.3725 c -0.0937,0.01 -0.18737,0.016 -0.28112,0.025 l 0.21241,0.4589 -2.16061,1.0009 -0.51726,-1.1167 c -0.0898,0.016 -0.1795,0.034 -0.26924,0.051 l 0.5457,1.1772 -2.16008,1.0009 -0.75862,-1.6376 c -0.0861,0.023 -0.17232,0.046 -0.25836,0.07 l 0.77771,1.6784 -2.16006,1.001 -0.90487,-1.9523 c -0.0836,0.03 -0.16719,0.059 -0.25061,0.09 l 0.91416,1.974 -2.16062,1.001 -0.95858,-2.0696 c -0.0119,0.01 -0.0238,0.011 -0.0357,0.016 l -0.20669,0.093 0.96015,2.0717 -0.59532,0.276 0.10954,0.2403 0.59687,-0.2765 1.00151,2.1616 -0.61082,0.2832 0.10903,0.2398 0.61236,-0.2837 1.00097,2.16 -0.62632,0.2905 0.11009,0.2418 0.62785,-0.2909 1.00098,2.1601 -0.64183,0.2976 0.10903,0.2398 0.64389,-0.2982 1.00151,2.1622 -0.65784,0.3048 0.10954,0.2398 0.65889,-0.3054 1.00097,2.1606 -0.67336,0.3116 0.11009,0.2419 0.67487,-0.3127 1.00047,2.1601 -0.68834,0.3188 0.10957,0.2408 0.68987,-0.3198 1.00201,2.1621 -0.70435,0.3261 0.10903,0.2398 0.70591,-0.3271 1.00097,2.16 -0.72038,0.3339 0.1106,0.2418 0.72141,-0.3343 1.00044,2.16 -0.73535,0.3406 0.10956,0.2408 0.73689,-0.3416 1.0015,2.1616 -0.75086,0.3478 0.10904,0.2403 0.75292,-0.3488 1.00047,2.1601 -0.76637,0.355 0.11007,0.2418 0.7679,-0.3555 1.00097,2.1601 -0.78237,0.3622 0.10956,0.2408 0.78394,-0.3632 1.00147,2.1616 -0.79788,0.3695 0.10957,0.2403 0.79891,-0.3705 1.00097,2.16 -0.81338,0.3768 0.11006,0.2418 0.81495,-0.3772 1.00097,2.16 -0.82889,0.384 0.10904,0.2403 0.83095,-0.3845 1.00147,2.1616 -0.84489,0.3912 0.10956,0.2403 0.84593,-0.3922 1.00097,2.1601 -0.8604,0.3984 0.11007,0.2418 0.86196,-0.3989 1.00097,2.1601 -0.8759,0.4056 0.10903,0.2403 0.87746,-0.4067 1.00201,2.1627 -0.89144,0.4129 0.10904,0.2398 0.89297,-0.414 1.00097,2.1601 -0.90691,0.4201 0.11006,0.2419 0.90848,-0.4206 1.00047,2.16 -0.92245,0.4274 0.10957,0.2403 0.92397,-0.4279 1.00151,2.1616 -0.93795,0.4346 0.10956,0.2403 0.93948,-0.4356 1.00045,2.1601 -0.95343,0.4418 0.11007,0.2418 0.95498,-0.4423 0.3819,0.8242 c 0.0805,-0.037 0.16024,-0.075 0.2403,-0.1131 l -0.38087,-0.8227 2.16059,-1.001 0.33745,0.7276 c 0.0772,-0.044 0.15475,-0.087 0.23151,-0.1313 l -0.32814,-0.7079 2.16059,-1.001 0.20103,0.4336 c 0.0734,-0.05 0.14772,-0.099 0.22064,-0.1494 l -0.18294,-0.3948 1.89034,-0.8759 c 0.27628,-0.2199 0.54978,-0.4433 0.81751,-0.6713 l -0.41806,0.1938 -1.00098,-2.1606 2.16059,-1.001 0.74777,1.6134 c 0.0673,-0.065 0.13544,-0.1293 0.20206,-0.1948 l -0.70848,-1.5302 2.16006,-1.0004 0.30388,0.6562 c 0.0633,-0.073 0.12599,-0.1468 0.18859,-0.2206 l -0.2532,-0.5467 1.11879,-0.5183 c 0.11631,-0.1496 0.23272,-0.2993 0.34623,-0.4507 l -1.57612,0.7302 -1.0015,-2.1621 2.16008,-1.001 0.85214,1.8392 c 0.0596,-0.083 0.11745,-0.1678 0.17622,-0.2517 l -0.78754,-1.6991 2.1611,-1.001 0.14573,0.3152 c 0.0544,-0.094 0.10723,-0.1897 0.16071,-0.2847 l -0.0656,-0.1421 0.1974,-0.091 c 0.0711,-0.1287 0.1405,-0.2584 0.20979,-0.3881 l -0.51829,0.2398 -1.00047,-2.1601 2.16009,-1.0009 0.3824,0.8263 c 0.0474,-0.1066 0.0958,-0.2128 0.14211,-0.3199 l -0.28578,-0.617 0.66818,-0.3096 c 0.047,-0.1187 0.0929,-0.2378 0.13848,-0.357 l -0.91829,0.4258 -1.00044,-2.1601 2.16215,-1.002 0.4041,0.8728 c 0.0393,-0.1253 0.0785,-0.2505 0.11628,-0.3762 l -0.28165,-0.6072 0.52504,-0.2434 c 0.0297,-0.1098 0.0577,-0.2201 0.0863,-0.3302 l -0.72194,0.3343 -1.00148,-2.1621 2.16059,-1.001 0.11988,0.2584 c 0.0379,-0.2178 0.073,-0.4361 0.10647,-0.6547 l -0.0967,0.045 -1.00044,-2.1601 1.39834,-0.6475 c 0.007,-0.1003 0.012,-0.2008 0.0176,-0.3012 l -1.52754,0.7079 -1.00097,-2.16 2.16008,-1.001 0.41754,0.9012 c 0.002,-0.21 10e-4,-0.4201 -0.002,-0.6304 l -0.17672,-0.3814 0.1695,-0.079 c -0.003,-0.095 -0.007,-0.1906 -0.0109,-0.2858 l -0.26924,0.125 -1.00201,-2.1621 1.07953,-0.5002 c -0.0107,-0.092 -0.0201,-0.184 -0.0315,-0.276 l -1.15858,0.5364 -1.00097,-2.16 1.75908,-0.815 c -0.0181,-0.089 -0.039,-0.1774 -0.0579,-0.2661 l -1.81282,0.8402 -1.00097,-2.1601 2.16008,-1.0009 0.17881,0.3855 c -0.18487,-0.6617 -0.39354,-1.3207 -0.62323,-1.9766 l -0.42685,-0.9219 0.0755,-0.035 c -0.0318,-0.082 -0.0616,-0.1649 -0.0941,-0.247 l -0.0925,0.043 -1.00044,-2.1601 0.13795,-0.064 c -0.0384,-0.08 -0.0772,-0.1593 -0.11626,-0.2387 l -0.13332,0.062 -1.00097,-2.1601 h 0.004 c -0.35425,-0.6036 -0.72692,-1.1913 -1.11517,-1.7642 l 0.75912,1.6387 -2.16009,1.0009 -1.00147,-2.1621 2.06962,-0.9586 c -0.0515,-0.073 -0.10292,-0.1465 -0.15502,-0.2191 l -2.0257,0.9385 -1.00097,-2.1607 1.52754,-0.7074 c -0.0591,-0.07 -0.11813,-0.1406 -0.17777,-0.2103 l -1.4614,0.6769 -1.00047,-2.16 0.76171,-0.353 c -0.0664,-0.066 -0.13306,-0.1322 -0.19997,-0.1979 l -0.67284,0.3116 -0.75602,-1.6325 c -0.15917,-0.1382 -0.31895,-0.2754 -0.48059,-0.4103 l 0.99788,2.1539 -2.16059,1.0005 -1.0015,-2.1622 2.15593,-0.9989 c -0.075,-0.063 -0.15126,-0.1236 -0.22685,-0.1855 l -2.04018,0.9446 -1.00047,-2.16 0.87953,-0.4072 c -0.0853,-0.059 -0.171,-0.1165 -0.25683,-0.1742 l -0.73433,0.3406 -0.53329,-1.1514 c -0.13401,-0.081 -0.269,-0.161 -0.4041,-0.2403 l 0.69607,1.5033 -2.16059,1.0009 -1.00044,-2.16 1.69291,-0.7845 c -0.0963,-0.053 -0.1936,-0.104 -0.29041,-0.156 l -1.5136,0.7012 -0.85886,-1.8541 c -0.12055,-0.053 -0.24162,-0.104 -0.36277,-0.1551 l 0.98237,2.1203 -2.16165,1.0015 -1.002,-2.1621 2.12391,-0.984 c -0.11038,-0.046 -0.2209,-0.092 -0.33176,-0.1374 l -1.90272,0.8816 -0.86249,-1.8609 c -0.11263,-0.034 -0.22495,-0.069 -0.33798,-0.1023 l 0.96121,2.0743 -2.16009,1.0004 -1.00097,-2.16 2.06034,-0.954 c -0.13105,-0.038 -0.26223,-0.075 -0.39378,-0.1111 l -1.77819,0.8243 -0.64389,-1.3891 c -0.10615,-0.021 -0.21296,-0.039 -0.31935,-0.058 l 0.72244,1.5586 -2.16111,1.001 -1.00047,-2.1601 1.27693,-0.5917 c -0.16222,-0.023 -0.32515,-0.044 -0.48781,-0.065 l -0.90022,0.417 -0.2527,-0.5462 c -0.10129,-0.01 -0.20294,-0.016 -0.30435,-0.025 l 0.31625,0.6826 -2.16008,1.001 -0.83148,-1.7947 c -0.0195,0 -0.0389,-6e-4 -0.0584,-5e-4 z m -2.75227,0.8563 1.002,2.1621 -2.16111,1.001 -1.00148,-2.1622 z m 5.9128,0.1772 1.00097,2.1601 -2.16005,1.0004 -1.00098,-2.1601 z m -8.31421,0.9353 1.0015,2.1622 -2.16009,1.0004 -1.0015,-2.1616 z m 5.91489,0.1762 1.00097,2.1601 -2.16008,1.001 -1.00097,-2.1606 z m 5.91384,0.1768 1.00046,2.1601 -2.16058,1.0009 -1.00097,-2.16 z m -14.22808,0.7586 1.0015,2.1621 -2.16008,1.0005 -1.00148,-2.1616 z m 5.91336,0.1767 1.00097,2.1606 -2.16112,1.001 -1.00046,-2.1606 z m 5.9128,0.1773 1.00097,2.1601 -2.16006,1.0009 -1.00097,-2.16 z m 5.91489,0.1747 1.00148,2.1621 -2.16006,1.001 -1.002,-2.1622 z m -20.14243,0.5839 1.002,2.1616 -2.16112,1.0015 -1.00147,-2.1627 z m 5.9128,0.1767 1.00097,2.1606 -2.16006,1.0005 -1.00097,-2.1601 z m 5.91542,0.1763 1.00097,2.16 -2.16008,1.001 -1.00097,-2.1601 z m 5.9128,0.1756 1.0015,2.1622 -2.16061,1.001 -1.00147,-2.1622 z m 5.9149,0.1762 1.00044,2.1601 -2.16162,1.002 -1.00097,-2.1606 z m -20.14194,0.5835 1.00047,2.1606 -2.16009,1.0004 -1.00097,-2.16 z m 5.91333,0.1772 1.00047,2.1601 -2.16059,1.001 -1.00097,-2.1601 z m 5.9123,0.1757 1.0015,2.1622 -2.16008,1.001 -1.00201,-2.1622 z m 5.91489,0.1762 1.00098,2.1601 -2.16009,1.001 -1.00097,-2.1601 z m 5.91334,0.1768 1.00097,2.1606 -2.16059,1.0009 -1.00097,-2.1605 z m -26.05524,0.4067 1.00097,2.1601 -2.16112,1.0009 -1.00047,-2.16 z m 5.9128,0.1772 1.00097,2.1601 -2.16009,1.001 -1.00097,-2.1601 z m 5.91489,0.1747 1.00147,2.1622 -2.16005,1.0009 -1.00201,-2.1621 z m 5.91333,0.1772 1.00044,2.1601 -2.16058,1.001 -1.00045,-2.1601 z m -31.71539,0.1494 -0.16018,0.073 c -0.0266,0.012 -0.0525,0.025 -0.0791,0.037 l 0.98701,2.1311 -2.16006,1.0005 -0.95346,-2.0578 c -0.0778,0.043 -0.15578,0.086 -0.23304,0.1292 l 0.94514,2.0402 -2.16058,1.001 -0.82733,-1.7865 c -0.0747,0.05 -0.14854,0.101 -0.22273,0.1514 l 0.80926,1.7472 -2.16009,1.0005 -0.60459,-1.3054 c -0.0711,0.057 -0.14034,0.1157 -0.21085,0.1731 l 0.57618,1.2434 -2.16006,1.0004 -0.27855,-0.6004 c -0.0677,0.065 -0.13499,0.1295 -0.20206,0.1948 l 0.23926,0.5173 -1.36062,0.6304 c -0.15444,0.1662 -0.30678,0.3341 -0.45736,0.5033 l 1.92911,-0.894 1.002,2.1622 -2.16112,1.0009 -0.95446,-2.0608 c -0.0637,0.073 -0.12819,0.1451 -0.19121,0.2186 l 0.90485,1.9539 -2.16006,1.0004 -0.39637,-0.8558 c -0.0592,0.082 -0.11827,0.1641 -0.17672,0.2466 l 0.33383,0.7203 -1.1896,0.5509 c -0.0875,0.1367 -0.1751,0.2734 -0.26045,0.4113 l 1.56115,-0.7234 1.00047,2.1606 -2.16009,1.0004 -0.81288,-1.7544 c -0.0548,0.094 -0.10782,0.1884 -0.16174,0.2826 l 0.7338,1.5834 -2.04018,0.9447 c -0.074,0.16 -0.14459,0.3215 -0.216,0.4826 l 0.96686,2.0867 -2.15439,0.9984 c -0.0337,0.1025 -0.0691,0.2046 -0.10179,0.3075 l 3.11608,6.8409 0.0775,0.1669 -10e-4,5e-4 0.10954,0.2403 h 0.002 l 1.002,2.1616 -0.0165,0.01 0.10956,0.2398 0.0176,-0.01 1.00097,2.1601 -0.032,0.015 0.1106,0.2418 0.0331,-0.015 1.00044,2.1601 -0.047,0.022 0.10956,0.2403 0.0486,-0.022 1.00147,2.1621 -0.062,0.029 0.10906,0.2393 0.0641,-0.03 1.00047,2.1601 -0.0775,0.036 0.11006,0.2418 0.0796,-0.037 1.00047,2.1601 -0.093,0.043 0.10956,0.2408 0.0946,-0.044 1.00147,2.1616 -0.1085,0.05 0.10956,0.2402 0.11007,-0.051 1.00044,2.1601 -0.12401,0.057 0.11057,0.2419 0.12507,-0.058 1.00097,2.1601 -0.13901,0.065 0.10956,0.2403 0.14055,-0.065 1.0015,2.1617 -0.15452,0.072 0.10904,0.2398 0.15605,-0.072 1.00097,2.1606 -0.17,0.079 0.11007,0.2418 0.17156,-0.08 1.00097,2.1601 -0.1855,0.086 0.10954,0.2403 0.18655,-0.086 1.00201,2.1616 -0.20103,0.093 0.10956,0.2398 0.20206,-0.093 0.3519,0.7591 c 0.11993,0.05 0.23971,0.1018 0.3602,0.1509 l -0.47283,-1.0206 2.16005,-1.001 1.00098,2.1601 -1.0418,0.4826 c 0.12208,0.042 0.24487,0.082 0.36743,0.123 l 0.78599,-0.3643 0.33229,0.7178 c 0.11195,0.033 0.22463,0.064 0.33692,0.096 l -0.42838,-0.925 2.16058,-1.001 1.00098,2.1601 -0.62789,0.2909 c 0.14587,0.031 0.29242,0.059 0.43874,0.088 l 0.30024,-0.139 0.10129,0.2186 c 0.10583,0.02 0.21227,0.037 0.31832,0.055 l -0.17878,-0.3861 2.16006,-1.0004 0.81235,1.7544 c 0.10072,0.01 0.20148,0.017 0.30231,0.025 l -0.8754,-1.8898 2.16008,-1.001 1.00148,2.1622 -1.66603,0.7715 c 0.19008,0.011 0.38058,0.018 0.57102,0.026 l 1.20613,-0.5586 0.27025,0.584 c 0.0971,-6e-4 0.19426,0 0.29146,0 l -0.32091,-0.693 2.16059,-1.001 0.71832,1.5508 c 0.0934,-0.01 0.18669,-0.018 0.28008,-0.028 l -0.75708,-1.634 2.16009,-1.0005 1.00047,2.1601 -0.43514,0.2015 c 0.35362,-0.06 0.70689,-0.1257 1.0599,-0.1984 l 1.88619,-0.8738 0.17415,0.3762 c 0.0863,-0.024 0.17264,-0.049 0.25889,-0.073 l -0.19172,-0.4145 2.16059,-1.0009 0.30903,0.6671 c 0.0831,-0.031 0.16608,-0.062 0.24908,-0.093 l -0.31729,-0.6853 2.16059,-1.0004 0.35243,0.7612 0.24029,-0.1085 -0.35398,-0.7638 0.25786,-0.1194 -0.11007,-0.2418 -0.2594,0.1204 -1.00046,-2.1601 0.27336,-0.1266 -0.10956,-0.2398 -0.2749,0.1271 -1.0015,-2.1621 0.28837,-0.1338 -0.10904,-0.2403 -0.29043,0.1343 -1.00044,-2.1601 0.30384,-0.1405 -0.11006,-0.2419 -0.30594,0.1416 -1.00044,-2.16 0.31935,-0.1478 -0.10904,-0.2403 -0.32141,0.1488 -1.0015,-2.1621 0.33485,-0.1551 -0.10953,-0.2408 -0.33642,0.1561 -1.00047,-2.1601 0.35036,-0.1623 -0.11007,-0.2413 -0.35189,0.1628 -1.001,-2.1601 0.36589,-0.1695 -0.10903,-0.2398 -0.36743,0.17 -1.002,-2.1621 0.38137,-0.1767 -0.10957,-0.2403 -0.3824,0.1772 -1.00097,-2.1601 0.39634,-0.1834 -0.11006,-0.2418 -0.39791,0.1845 -1.00097,-2.1606 0.41188,-0.1907 -0.10904,-0.2398 -0.41341,0.1917 -1.0015,-2.1621 0.42735,-0.198 -0.10953,-0.2402 -0.42892,0.1984 -1.00097,-2.1601 0.44286,-0.2052 -0.11007,-0.2418 -0.44442,0.2062 -1.00047,-2.1606 0.45786,-0.2124 -0.10903,-0.2393 -0.45993,0.213 -1.00147,-2.1622 0.47387,-0.2196 -0.10957,-0.2403 -0.47543,0.2201 -1.00097,-2.16 0.4894,-0.2264 -0.11009,-0.2418 -0.49091,0.2274 -1.00047,-2.1601 0.50438,-0.2336 -0.10904,-0.2403 -0.50644,0.2346 -1.0015,-2.1621 0.51988,-0.2408 -0.10956,-0.2409 -0.52141,0.2419 -1.00045,-2.1601 0.53536,-0.248 -0.11007,-0.2414 -0.53692,0.2486 -1.00097,-2.1601 0.55087,-0.2552 -0.10904,-0.2398 -0.55242,0.2558 -1.00201,-2.1622 0.56637,-0.2625 -0.10954,-0.2403 -0.56742,0.2631 -1.00097,-2.1601 0.58189,-0.2693 -0.11009,-0.2418 -0.5834,0.2703 -1.00098,-2.1601 0.59738,-0.277 -0.10956,-0.2398 -0.59841,0.2775 -1.0015,-2.1621 0.61237,-0.2837 -0.10956,-0.2403 -0.61391,0.2842 z m 37.62976,0.027 1.00097,2.16 -2.16215,1.0015 -1.00044,-2.16 z m -20.14191,0.5834 1.00097,2.1601 -2.16009,1.0009 -1.00097,-2.16 z m 5.9128,0.1757 1.0015,2.1616 -2.16061,1.0015 -1.00148,-2.1621 z m 5.91283,0.1772 1.00097,2.1601 -2.16008,1.0005 -1.00098,-2.1601 z m 5.91539,0.1757 1.00098,2.1601 -2.16059,1.001 -1.00047,-2.1601 z m 5.91281,0.1757 1.0015,2.1622 -2.16059,1.001 -1.0015,-2.1622 z m -26.05474,0.4083 1.00047,2.1601 -2.16059,1.0009 -1.00097,-2.16 z m 5.9123,0.1757 1.0015,2.1621 -2.16009,1.0005 -1.002,-2.1622 z m 5.91489,0.1762 1.00097,2.1601 -2.16008,1.0004 -1.00097,-2.16 z m 5.91333,0.1767 1.00097,2.1606 -2.16058,1.0005 -1.00098,-2.1601 z m 5.91437,0.1752 1.0015,2.1616 -2.16215,1.0021 -1.00148,-2.1622 z m -37.88297,0.055 1.0015,2.1616 -2.16008,1.001 -1.00147,-2.1622 z m 43.7963,0.122 1.00097,2.16 -2.16059,1.001 -1.00044,-2.1601 z m -26.05524,0.4066 1.00147,2.1622 -2.16006,1.0004 -1.002,-2.1616 z m 5.91333,0.1768 1.00044,2.1606 -2.16059,1.0009 -1.00044,-2.1605 z m 5.9128,0.1772 1.00047,2.1601 -2.16008,1.001 -1.00045,-2.1601 z m 5.91439,0.1747 1.002,2.1621 -2.16058,1.001 -1.0015,-2.1621 z m -37.88296,0.055 1.002,2.1621 -2.16111,1.001 -1.00148,-2.1622 z m 43.79629,0.1225 1.00097,2.16 -2.16058,1.001 -1.001,-2.1601 z m -26.05526,0.4066 1.0015,2.1617 -2.16062,1.0009 -1.00147,-2.1616 z m 5.91282,0.1768 1.00098,2.1606 -2.16009,1.0004 -1.00097,-2.16 z m 5.9154,0.1762 1.00097,2.1601 -2.16059,1.0009 -1.00046,-2.16 z m 5.9128,0.1757 1.0015,2.1621 -2.16058,1.001 -1.0015,-2.1621 z m -37.88346,0.055 1.0015,2.1621 -2.16009,1.001 -1.0015,-2.1622 z m 43.79836,0.1214 1.00046,2.1601 -2.16214,1.002 -1.00047,-2.1601 z m -37.88297,0.055 1.00047,2.16 -2.16008,1.001 -1.00097,-2.1606 z m 43.7963,0.1225 1.00047,2.16 -2.16009,1.001 -1.00097,-2.1606 z m -26.05577,0.4061 1.00097,2.1606 -2.16009,1.0005 -1.00097,-2.1601 z m 5.91333,0.1773 1.00097,2.1601 -2.16059,1.0009 -1.00097,-2.16 z m 5.9123,0.1757 1.002,2.1621 -2.16059,1.001 -1.0015,-2.1621 z m -37.8809,0.054 1.0015,2.1622 -2.16008,1.0009 -1.00148,-2.1621 z m 43.79629,0.1225 1.00098,2.1601 -2.16059,1.0009 -1.00044,-2.16 z m -37.88296,0.055 1.00097,2.16 -2.16109,1.001 -1.00047,-2.16 z m 43.7963,0.1219 1.00097,2.1606 -2.16059,1.001 -1.00097,-2.1601 z m -26.05524,0.4067 1.00044,2.1601 -2.16059,1.001 -1.00044,-2.1601 z m 5.9128,0.1773 1.00047,2.1601 -2.16009,1.0009 -1.00044,-2.1601 z m 5.91439,0.1746 1.002,2.1622 -2.16061,1.0004 -1.00148,-2.1616 z m 5.91333,0.1773 1.00097,2.1601 -2.16059,1.0009 -1.00099,-2.16 z m -37.88349,0.055 1.00097,2.16 -2.16006,1.001 -1.00097,-2.1606 z m 43.79836,0.1214 1.00097,2.1601 -2.16212,1.0015 -1.00098,-2.1601 z m -37.88297,0.055 1.00098,2.1601 -2.16006,1.0004 -1.00097,-2.1601 z m 43.79579,0.1209 1.00148,2.1616 -2.16006,1.001 -1.0015,-2.1621 z m -26.05473,0.4077 1.00097,2.1601 -2.16059,1.001 -1.00047,-2.1601 z m 5.9128,0.1757 1.0015,2.1622 -2.16059,1.0004 -1.0015,-2.1616 z m 5.91283,0.1773 1.00097,2.16 -2.16059,1.0005 -1.00047,-2.1601 z m -37.8809,0.054 1.00047,2.1601 -2.16009,1.001 -1.00097,-2.1606 z m 43.79629,0.1225 1.00047,2.1601 -2.16008,1.0004 -1.00097,-2.1601 z m -37.88296,0.054 1.00047,2.16 -2.16059,1.001 -1.00097,-2.1601 z m 43.79579,0.1209 1.00148,2.1621 -2.16059,1.001 -1.002,-2.1621 z m 5.9128,0.1772 1.00047,2.1601 -2.16008,1.001 -1.00044,-2.1601 z m -31.96806,0.231 1.00097,2.1601 -2.16059,1.001 -1.00097,-2.1601 z m 5.9123,0.1757 1.002,2.1622 -2.16059,1.0004 -1.0015,-2.1621 z m 5.91539,0.1763 1.00097,2.16 -2.16059,1.0005 -1.00044,-2.1601 z m -37.88296,0.054 1.00097,2.1606 -2.16109,1.001 -1.00047,-2.1606 z m 43.79629,0.1225 1.00097,2.1601 -2.16058,1.0009 -1.00098,-2.1601 z m -37.88346,0.055 1.00097,2.16 -2.16009,1.001 -1.00097,-2.1601 z m 43.79785,0.1204 1.00148,2.1616 -2.16215,1.002 -1.00148,-2.1621 z m -37.88296,0.054 1.00147,2.1622 -2.16005,1.0009 -1.00201,-2.1621 z m 43.79629,0.1225 1.00045,2.1601 -2.16006,1.001 -1.00047,-2.1601 z m -26.05579,0.4067 1.00203,2.1621 -2.16062,1.0005 -1.00147,-2.1621 z m 5.91336,0.1767 1.00097,2.1606 -2.16062,1.001 -1.00097,-2.1606 z m -37.8835,0.055 1.00098,2.1601 -2.16006,1.0005 -1.00097,-2.1601 z m 43.79683,0.122 1.00044,2.1601 -2.16006,1.0009 -1.00097,-2.1601 z m -37.88143,0.054 1.00097,2.1606 -2.16006,1.0005 -1.00097,-2.1601 z m 43.79579,0.121 1.00148,2.1621 -2.16006,1.0009 -1.0015,-2.1621 z m -37.88296,0.055 1.0015,2.1622 -2.16061,1.0009 -1.00148,-2.1621 z m 43.79629,0.1225 1.00097,2.1601 -2.16058,1.0009 -1.00098,-2.16 z m 5.9128,0.1772 1.001,2.1601 -2.16008,1.001 -1.00097,-2.1606 z m -31.96806,0.2295 1.0015,2.1616 -2.16059,1.001 -1.0015,-2.1616 z m 5.91282,0.1767 1.00098,2.1606 -2.16059,1.0005 -1.00047,-2.1601 z m 5.9154,0.1762 1.00047,2.1601 -2.16009,1.001 -1.00097,-2.1601 z m -37.88296,0.055 1.00047,2.1601 -2.16059,1.001 -1.00097,-2.1601 z m 43.79579,0.1209 1.00147,2.1622 -2.16058,1.0009 -1.00201,-2.1621 z m -37.88349,0.055 1.0015,2.1621 -2.16009,1.001 -1.002,-2.1621 z m 43.79785,0.1214 1.00097,2.1601 -2.16214,1.002 -1.00045,-2.1606 z m -37.88296,0.055 1.00097,2.1601 -2.16008,1.001 -1.00097,-2.1601 z m 43.79629,0.1225 1.00098,2.1601 -2.16009,1.0004 -1.00097,-2.1601 z m -26.05526,0.4062 1.00097,2.1606 -2.16059,1.0004 -1.00044,-2.1601 z m 5.91333,0.1772 1.00097,2.1601 -2.16059,1.001 -1.00097,-2.1601 z m -37.88347,0.055 1.00098,2.1601 -2.16009,1.0009 -1.00097,-2.16 z m 43.79577,0.1209 1.0015,2.1622 -2.16009,1.0004 -1.00147,-2.1616 z m -37.88087,0.054 1.00147,2.1621 -2.16006,1.001 -1.002,-2.1622 z m 43.79629,0.1224 1.00044,2.1601 -2.16008,1.001 -1.00044,-2.1601 z m -37.88296,0.055 1.00044,2.1601 -2.16059,1.001 -1.00044,-2.1601 z m 43.79629,0.122 1.00044,2.1601 -2.16058,1.0009 -1.00045,-2.1601 z m 5.9123,0.1762 1.00148,2.1616 -2.16006,1.001 -1.0015,-2.1621 z m -31.96807,0.2305 1.00097,2.1601 -2.16061,1.0009 -1.00097,-2.1601 z m 5.91333,0.1772 1.00045,2.1601 -2.16006,1.001 -1.00097,-2.1601 z m -37.88142,0.054 1.00097,2.16 -2.16006,1.001 -1.00097,-2.1601 z m 43.79579,0.1209 1.00147,2.1621 -2.16006,1.001 -1.0015,-2.1621 z m -37.88296,0.055 1.0015,2.1621 -2.16062,1.001 -1.00147,-2.1622 z m 43.79629,0.1224 1.00097,2.1601 -2.16059,1.001 -1.00097,-2.1601 z m -37.88349,0.055 1.001,2.1601 -2.16009,1.0005 -1.00097,-2.1601 z m 43.79838,0.1214 1.00097,2.1601 -2.16215,1.0015 -1.00097,-2.1601 z m -37.88296,0.054 1.00097,2.1606 -2.16059,1.0005 -1.00046,-2.1601 z m 43.79576,0.1215 1.0015,2.1616 -2.16008,1.0009 -1.00147,-2.1621 z m -26.05473,0.4077 1.00047,2.1601 -2.16009,1.0009 -1.00097,-2.16 z m -37.88297,0.055 1.00047,2.1601 -2.16058,1.001 -1.00047,-2.1601 z m 43.7958,0.121 1.00147,2.1621 -2.16059,1.001 -1.002,-2.1621 z m -37.8835,0.055 1.00151,2.1621 -2.16009,1.0004 -1.002,-2.1621 z m 43.7963,0.1224 1.00047,2.1601 -2.16009,1.001 -1.00044,-2.1606 z m -37.8814,0.054 1.00097,2.1601 -2.16009,1.0009 -1.00097,-2.1606 z m 43.79629,0.1219 1.00097,2.1606 -2.16008,1.0005 -1.00097,-2.1601 z m -37.88296,0.055 1.00097,2.1606 -2.16059,1.0004 -1.00097,-2.16 z m 43.79576,0.1209 1.00203,2.1622 -2.16111,1.0009 -1.0015,-2.1621 z m -26.05473,0.4083 1.00097,2.16 -2.16059,1.001 -1.00097,-2.16 z m 5.91229,0.1757 1.00151,2.1621 -2.16009,1.0005 -1.00147,-2.1622 z m -37.88087,0.054 1.00148,2.1621 -2.16006,1.0005 -1.00203,-2.1616 z m 43.7963,0.1225 1.00044,2.1601 -2.16009,1.0004 -1.00044,-2.1601 z m -37.88297,0.054 1.00045,2.1607 -2.16059,1.0009 -1.00044,-2.1606 z m 43.7963,0.1225 1.00044,2.1601 -2.16059,1.001 -1.00044,-2.1601 z m -37.88349,0.055 1.00097,2.1601 -2.16059,1.0009 -1.00044,-2.16 z m 43.79732,0.1204 1.00201,2.1616 -2.16213,1.002 -1.0015,-2.1621 z m -37.88296,0.054 1.00203,2.1621 -2.16061,1.001 -1.00148,-2.1622 z m 43.79682,0.1224 1.00045,2.1601 -2.16006,1.001 -1.00097,-2.1601 z m -26.05577,0.4067 1.00148,2.1622 -2.16006,1.0004 -1.0015,-2.1616 z m -37.88296,0.055 1.00148,2.1616 -2.16059,1.0015 -1.00148,-2.1621 z m 43.7963,0.122 1.00097,2.16 -2.16059,1.001 -1.00097,-2.1601 z m -37.8835,0.055 1.001,2.1606 -2.16008,1.0005 -1.00097,-2.1601 z m 43.7963,0.1225 1.00097,2.1601 -2.16006,1.001 -1.00097,-2.1601 z m -37.88087,0.054 1.00097,2.16 -2.16059,1.001 -1.00047,-2.1601 z m 43.79576,0.1209 1.0015,2.1621 -2.16008,1.001 -1.0015,-2.1621 z m -37.88296,0.055 1.0015,2.1621 -2.16059,1.001 -1.0015,-2.1622 z m 43.79629,0.1224 1.00097,2.1601 -2.16109,1.001 -1.00047,-2.1601 z m -26.05524,0.4062 1.00148,2.1621 -2.16059,1.001 -1.002,-2.1616 z m -37.88349,0.055 1.0015,2.1621 -2.16008,1.0005 -1.00201,-2.1621 z m 43.79629,0.122 1.00047,2.1606 -2.16008,1.0004 -1.00044,-2.1601 z m -37.8814,0.054 1.00098,2.1601 -2.16009,1.0004 -1.00097,-2.16 z m 43.7963,0.122 1.00097,2.16 -2.16009,1.001 -1.00097,-2.16 z m -37.88296,0.055 1.00097,2.16 -2.16059,1.001 -1.00097,-2.1601 z m 43.79576,0.1209 1.002,2.1621 -2.16109,1.001 -1.0015,-2.1622 z m -37.88347,0.055 1.00201,2.1621 -2.16059,1.001 -1.0015,-2.1622 z m 43.79836,0.1214 1.00097,2.1601 -2.16214,1.002 -1.00098,-2.1601 z m -37.88296,0.055 1.00097,2.16 -2.16059,1.001 -1.00044,-2.1601 z m 43.79629,0.1225 1.00098,2.16 -2.16006,1.001 -1.00097,-2.1606 z m -26.05524,0.4061 1.00045,2.1606 -2.16009,1.0005 -1.00044,-2.1601 z m -37.88296,0.055 1.00044,2.1601 -2.16058,1.0009 -1.00045,-2.16 z m 43.79629,0.1225 1.00045,2.16 -2.16059,1.001 -1.00047,-2.16 z m -37.88349,0.055 1.00047,2.16 -2.16008,1.001 -1.00044,-2.1601 z m 43.79579,0.1209 1.00148,2.1621 -2.16006,1.0005 -1.0015,-2.1617 z m -37.88142,0.054 1.002,2.1622 -2.16059,1.0004 -1.00147,-2.1616 z m 43.79682,0.1225 1.00044,2.1601 -2.16006,1.0009 -1.00097,-2.1606 z m -37.88346,0.055 1.00097,2.16 -2.16062,1.001 -1.00097,-2.1601 z m 43.79679,0.1219 1.00044,2.1606 -2.16058,1.001 -1.00045,-2.1606 z m -26.05577,0.4067 1.00097,2.1601 -2.16058,1.001 -1.00098,-2.1601 z m -37.88349,0.055 1.00097,2.1601 -2.16006,1.0009 -1.00097,-2.16 z m 43.79629,0.1225 1.00098,2.16 -2.16006,1.001 -1.00097,-2.1606 z m -37.88087,0.054 1.00097,2.1601 -2.16058,1.0009 -1.00047,-2.16 z m 43.79577,0.1209 1.0015,2.1622 -2.16009,1.0004 -1.0015,-2.1616 z m -37.88296,0.055 1.0015,2.1622 -2.16059,1.0009 -1.0015,-2.1621 z m 43.79629,0.1225 1.00097,2.1601 -2.16109,1.0009 -1.00047,-2.1601 z m -37.88347,0.055 1.00098,2.1601 -2.16059,1.001 -1.00047,-2.1606 z m 43.79836,0.1215 1.00044,2.1601 -2.16162,1.0014 -1.00097,-2.16 z m -37.88296,0.055 1.00044,2.16 -2.16006,1.0005 -1.00047,-2.1601 z m 43.79576,0.1209 1.0015,2.1616 -2.16008,1.001 -1.002,-2.1622 z m -26.05524,0.4077 1.00098,2.1601 -2.16009,1.001 -1.00097,-2.1601 z m -37.88296,0.055 1.00097,2.1601 -2.16058,1.0009 -1.00098,-2.16 z m 43.79577,0.1209 1.002,2.1622 -2.16109,1.0009 -1.0015,-2.1621 z m -37.88347,0.055 1.002,2.1622 -2.16058,1.0004 -1.0015,-2.1622 z m 43.79629,0.1225 1.00098,2.16 -2.16009,1.001 -1.00097,-2.1606 z m -37.88089,0.054 1.00097,2.1601 -2.16059,1.0004 -1.00044,-2.16 z m 43.79629,0.122 1.00097,2.1606 -2.16006,1.0004 -1.00097,-2.16 z m -37.88296,0.055 1.00097,2.16 -2.16059,1.0015 -1.00097,-2.1606 z m 43.79579,0.1209 1.00147,2.1621 -2.16058,1.001 -1.00148,-2.1622 z m -26.05474,0.4082 1.00044,2.1601 -2.16058,1.001 -1.00047,-2.1601 z m -37.88349,0.055 1.00097,2.1601 -2.16059,1.0009 -1.00044,-2.1605 z m 43.79579,0.1209 1.00148,2.1622 -2.16006,1.0004 -1.0015,-2.1616 z m -37.88143,0.054 1.00201,2.1621 -2.16059,1.0005 -1.00147,-2.1622 z m 43.79683,0.1224 1.00044,2.1601 -2.16006,1.001 -1.00097,-2.1606 z m -37.88349,0.054 1.00097,2.1606 -2.16059,1.001 -1.00097,-2.1606 z m 43.79682,0.1225 1.00044,2.16 -2.16059,1.001 -1.00044,-2.1601 z m -37.88347,0.055 1.00045,2.16 -2.16009,1.001 -1.00097,-2.1601 z m 43.79733,0.1203 1.00147,2.1622 -2.16162,1.0015 -1.002,-2.1622 z m -37.88296,0.054 1.00147,2.1622 -2.16006,1.0009 -1.0015,-2.1621 z m 17.74102,0.5292 1.0015,2.1621 -2.16008,1.0005 -1.0015,-2.1622 z m -37.88296,0.055 1.0015,2.1617 -2.16058,1.001 -1.00151,-2.1617 z m 43.7963,0.122 1.00097,2.1606 -2.16109,1.001 -1.00047,-2.1606 z m -37.88347,0.055 1.00097,2.1606 -2.16059,1.0004 -1.00046,-2.16 z m 43.79629,0.1225 1.00098,2.16 -2.16009,1.001 -1.00097,-2.1601 z m -37.88089,0.054 1.00044,2.1601 -2.16006,1.001 -1.00047,-2.1601 z m 43.79576,0.1209 1.0015,2.1622 -2.16008,1.0009 -1.00201,-2.1621 z m -37.88293,0.055 1.00147,2.1622 -2.16059,1.0009 -1.002,-2.1621 z m 43.79626,0.1225 1.00047,2.16 -2.16059,1.001 -1.00047,-2.16 z m -26.05577,0.4061 1.00201,2.1622 -2.16109,1.001 -1.0015,-2.1622 z m -37.88346,0.055 1.002,2.1622 -2.16059,1.0005 -1.0015,-2.1622 z m 43.79629,0.1225 1.00097,2.1601 -2.16008,1.0004 -1.00097,-2.16 z m -37.8809,0.053 1.00097,2.16 -2.16058,1.001 -1.00044,-2.1601 z m 43.7963,0.1224 1.00097,2.1606 -2.16006,1.0005 -1.00097,-2.1601 z m -37.88297,0.055 1.00098,2.1601 -2.16059,1.001 -1.00097,-2.1601 z m 43.7958,0.1209 1.00147,2.1622 -2.16059,1.0009 -1.00147,-2.1621 z m -37.8835,0.055 1.00151,2.1621 -2.16009,1.001 -1.00147,-2.1621 z m 43.79836,0.1214 1.00047,2.1601 -2.16162,1.002 -1.00097,-2.1606 z m -37.88296,0.055 1.00047,2.1601 -2.16009,1.001 -1.00044,-2.1601 z m 17.74105,0.5287 1.00045,2.1606 -2.16006,1.0004 -1.00097,-2.1601 z m -37.88349,0.055 1.00097,2.16 -2.16058,1.001 -1.00098,-2.1601 z m 43.79682,0.1224 1.00045,2.1601 -2.16059,1.001 -1.00044,-2.1601 z m -37.88346,0.055 1.00044,2.1601 -2.16008,1.001 -1.00097,-2.1601 z m 43.79576,0.1209 1.00151,2.1622 -2.16009,1.0004 -1.002,-2.1616 z m -37.8814,0.054 1.00148,2.1622 -2.16006,1.001 -1.0015,-2.1622 z m 43.7963,0.1225 1.00097,2.1601 -2.16009,1.001 -1.00097,-2.1606 z m -37.88296,0.055 1.00097,2.1601 -2.16059,1.0009 -1.00097,-2.16 z m 43.79629,0.122 1.00097,2.1606 -2.16059,1.0009 -1.00097,-2.1606 z m -26.05527,0.4067 1.00097,2.16 -2.16111,1.001 -1.00045,-2.1601 z m -37.88346,0.055 1.00097,2.1601 -2.16059,1.001 -1.00047,-2.1601 z m 43.79629,0.1225 1.00097,2.1601 -2.16008,1.001 -1.00097,-2.1601 z m -37.8809,0.054 1.00045,2.16 -2.16006,1.001 -1.00047,-2.1601 z m 43.79577,0.1209 1.0015,2.1621 -2.16009,1.001 -1.002,-2.1622 z m -37.88296,0.055 1.0015,2.1622 -2.16059,1.001 -1.00201,-2.1622 z m 43.79629,0.1225 1.00047,2.1601 -2.16059,1.001 -1.00047,-2.1601 z m -37.88347,0.055 1.00047,2.1601 -2.16008,1.0009 -1.00047,-2.1605 z m 43.79836,0.1214 1.00047,2.1601 -2.16215,1.0015 -1.00047,-2.1601 z m -37.88346,0.055 1.00097,2.1601 -2.16009,1.0005 -1.00097,-2.1601 z m 17.74102,0.5287 1.00097,2.1601 -2.16008,1.0009 -1.00097,-2.1606 z m -37.88296,0.055 1.00097,2.1601 -2.16058,1.001 -1.00098,-2.1601 z m 43.79579,0.121 1.00148,2.1621 -2.16059,1.001 -1.00148,-2.1622 z m -37.88349,0.055 1.0015,2.1622 -2.16008,1.0004 -1.00148,-2.1616 z m 43.79629,0.1225 1.00098,2.1601 -2.16006,1.0004 -1.00097,-2.16 z m -37.88089,0.054 1.00047,2.16 -2.16009,1.001 -1.00044,-2.1606 z m 43.79629,0.1219 1.00097,2.1606 -2.16059,1.0005 -1.00044,-2.1601 z m -37.88294,0.055 1.00045,2.1601 -2.16059,1.0009 -1.00047,-2.16 z m 17.74103,0.5292 1.00044,2.16 -2.16058,1.001 -1.00045,-2.1601 z m -37.88349,0.055 1.00047,2.1601 -2.16009,1.001 -1.00097,-2.1601 z m 43.79579,0.1209 1.0015,2.1622 -2.16008,1.0005 -1.00201,-2.1622 z m -37.8814,0.054 1.00147,2.1621 -2.16005,1.0005 -1.0015,-2.1616 z m 43.79629,0.1225 1.00098,2.16 -2.16009,1.001 -1.00097,-2.1606 z m -37.88296,0.054 1.00097,2.1601 -2.16058,1.0015 -1.00098,-2.1606 z m 43.7963,0.1225 1.00097,2.1601 -2.16059,1.001 -1.00097,-2.1601 z m -37.8835,0.055 1.00098,2.1606 -2.16006,1.0004 -1.00097,-2.16 z m 43.79786,0.1204 1.00147,2.1616 -2.16212,1.002 -1.0015,-2.1621 z m -37.88296,0.054 1.0015,2.1621 -2.16009,1.001 -1.0015,-2.1622 z m 17.74102,0.5291 1.0015,2.1622 -2.16008,1.0004 -1.002,-2.1616 z m -37.88296,0.055 1.0015,2.1616 -2.16058,1.001 -1.00201,-2.1616 z m 43.7963,0.122 1.00046,2.1605 -2.16058,1.001 -1.00047,-2.1606 z m -37.88347,0.055 1.00047,2.1606 -2.16009,1.0005 -1.00046,-2.1601 z m 43.79629,0.1225 1.00098,2.1601 -2.16059,1.001 -1.00047,-2.1601 z m -37.8814,0.054 1.00097,2.1601 -2.16008,1.001 -1.00097,-2.1601 z m 43.79577,0.121 1.002,2.1621 -2.16059,1.001 -1.00147,-2.1621 z m -37.88296,0.055 1.002,2.1622 -2.16109,1.001 -1.0015,-2.1622 z m 17.74105,0.5292 1.00147,2.1616 -2.16058,1.001 -1.00151,-2.1616 z m -37.88349,0.055 1.0015,2.1616 -2.16009,1.001 -1.00147,-2.1621 z m 43.79629,0.122 1.00097,2.1605 -2.16006,1.0005 -1.00097,-2.1601 z m -37.8809,0.054 1.00047,2.1601 -2.16008,1.0005 -1.00045,-2.1601 z m 43.7963,0.122 1.00097,2.16 -2.16059,1.001 -1.00044,-2.1601 z m -37.88294,0.055 1.00044,2.1601 -2.16058,1.001 -1.00047,-2.1601 z m 43.79577,0.121 1.0015,2.1621 -2.16062,1.001 -1.00147,-2.1622 z m -37.88347,0.055 1.00148,2.1622 -2.16009,1.0004 -1.00147,-2.1616 z m 5.9154,0.1763 1.00044,2.16 -2.16006,1.001 -1.00097,-2.1606 z m 17.74052,0.5286 1.00097,2.1606 -2.16008,1.0005 -1.00097,-2.1601 z m -37.88296,0.055 1.00097,2.1601 -2.16059,1.0009 -1.00097,-2.16 z m 43.79629,0.1225 1.00097,2.16 -2.16058,1.001 -1.00098,-2.1601 z m -37.88349,0.055 1.00097,2.1601 -2.16006,1.001 -1.00097,-2.1601 z m 43.79579,0.121 1.002,2.1621 -2.16058,1.001 -1.0015,-2.1622 z m -37.8809,0.054 1.0015,2.1621 -2.16008,1.001 -1.0015,-2.1621 z m 43.7963,0.1225 1.00097,2.1601 -2.16059,1.0009 -1.00047,-2.1606 z m -37.88297,0.055 1.00098,2.16 -2.16112,1.001 -1.00044,-2.1601 z m 17.74103,0.5286 1.00047,2.1601 -2.16059,1.001 -1.00047,-2.1601 z m -37.88346,0.055 1.00047,2.1601 -2.16009,1.0009 -1.00047,-2.16 z m 43.79629,0.1224 1.00097,2.1601 -2.16059,1.001 -1.00046,-2.1601 z m -37.8814,0.054 1.00097,2.1601 -2.16008,1.0009 -1.00098,-2.16 z m 43.79576,0.1209 1.00201,2.1622 -2.16059,1.0004 -1.0015,-2.1616 z m -37.88296,0.055 1.00201,2.1621 -2.16109,1.001 -1.00151,-2.1621 z m 43.7963,0.1225 1.00097,2.16 -2.16059,1.001 -1.00097,-2.1601 z m -37.88347,0.055 1.00097,2.1601 -2.16008,1.001 -1.00097,-2.1606 z m 5.9154,0.1757 1.00097,2.1606 -2.16009,1.0005 -1.00097,-2.1601 z m 17.74102,0.5292 1.00097,2.1601 -2.16058,1.001 -1.00045,-2.1601 z m -37.88293,0.055 1.00044,2.1601 -2.16059,1.0009 -1.00047,-2.16 z m 43.79576,0.1209 1.00148,2.1616 -2.16059,1.001 -1.00148,-2.1616 z m -37.88346,0.055 1.00147,2.1621 -2.16008,1.0005 -1.00148,-2.1616 z m 43.79629,0.1225 1.00097,2.16 -2.16061,1.0005 -1.00044,-2.1601 z m -37.8809,0.054 1.00045,2.1601 -2.16006,1.001 -1.00097,-2.1606 z m 5.91333,0.1767 1.00045,2.1601 -2.16059,1.001 -1.00044,-2.1601 z m 17.74053,0.5292 1.00097,2.1601 -2.16059,1.001 -1.001,-2.1601 z m -37.88349,0.055 1.00097,2.1601 -2.16006,1.0009 -1.00097,-2.1606 z m 43.79579,0.1209 1.002,2.1621 -2.16059,1.0005 -1.0015,-2.1621 z m -37.8809,0.054 1.00147,2.1621 -2.16005,1.0004 -1.0015,-2.1616 z m 43.79629,0.1224 1.00097,2.1601 -2.16058,1.0005 -1.00047,-2.1601 z m -37.88296,0.054 1.00097,2.1601 -2.16058,1.0009 -1.00098,-2.1601 z m 43.79629,0.1224 1.00098,2.1601 -2.16059,1.001 -1.00097,-2.1601 z m -37.88346,0.055 1.00097,2.1606 -2.16008,1.0005 -1.00097,-2.1601 z m 5.91487,0.1752 1.0015,2.1616 -2.16009,1.001 -1.002,-2.1621 z m 17.74052,0.5287 1.002,2.1621 -2.16058,1.0005 -1.0015,-2.1622 z m -37.88296,0.055 1.002,2.1616 -2.16059,1.0009 -1.002,-2.1616 z m 43.79629,0.1219 1.00097,2.1606 -2.16058,1.001 -1.00098,-2.1606 z m -37.88346,0.055 1.00097,2.1601 -2.16009,1.0004 -1.00097,-2.1601 z m 43.79679,0.1219 1.00047,2.1601 -2.16008,1.001 -1.00044,-2.1601 z m -37.8814,0.054 1.00097,2.1606 -2.16008,1.0004 -1.00097,-2.16 z m 5.91283,0.1757 1.00148,2.1621 -2.16059,1.001 -1.0015,-2.1621 z m 17.74103,0.5292 1.00147,2.1616 -2.16058,1.001 -1.00148,-2.1617 z m -37.88347,0.055 1.00148,2.1617 -2.16009,1.0009 -1.00147,-2.1621 z m 43.79627,0.122 1.00097,2.1606 -2.16058,1.0004 -1.00045,-2.16 z m -37.88087,0.054 1.00044,2.1606 -2.16006,1.0005 -1.00097,-2.1601 z m 43.79629,0.1225 1.00045,2.1601 -2.16006,1.0009 -1.00047,-2.16 z m -37.88296,0.055 1.00044,2.1601 -2.16058,1.0009 -1.00045,-2.16 z m 5.9123,0.1757 1.00147,2.1621 -2.16005,1.001 -1.00201,-2.1621 z m 5.91489,0.1762 1.00097,2.1601 -2.16008,1.001 -1.00097,-2.1607 z m 17.74103,0.5286 1.00097,2.1601 -2.16059,1.001 -1.00046,-2.1601 z m -37.88296,0.055 1.00097,2.1601 -2.16059,1.001 -1.00097,-2.1601 z m 43.79629,0.1225 1.00097,2.1601 -2.16058,1.0009 -1.00098,-2.16 z m -37.88346,0.055 1.00097,2.1601 -2.16009,1.0009 -1.00097,-2.16 z m 5.91486,0.1746 1.0015,2.1622 -2.16008,1.001 -1.002,-2.1622 z m 5.91333,0.1773 1.00047,2.1601 -2.16058,1.0009 -1.00047,-2.16 z m 17.74053,0.5286 1.00097,2.1601 -2.16059,1.001 -1.00097,-2.1601 z m -37.88296,0.055 1.00047,2.1601 -2.16009,1.001 -1.00097,-2.1601 z m 43.79629,0.1225 1.00047,2.1601 -2.16009,1.0009 -1.00044,-2.16 z m -37.8814,0.054 1.00097,2.1601 -2.16008,1.001 -1.00098,-2.1601 z m 43.79576,0.121 1.0015,2.1621 -2.16008,1.0005 -1.00147,-2.1617 z m -37.88293,0.055 1.00147,2.1622 -2.16058,1.001 -1.00151,-2.1622 z m 5.9128,0.1773 1.00097,2.1601 -2.16006,1.0004 -1.00099,-2.1601 z m 5.9154,0.1762 1.00097,2.1601 -2.16059,1.0004 -1.00044,-2.16 z m 17.74105,0.5287 1.00044,2.16 -2.16006,1.001 -1.00047,-2.1601 z m -37.88296,0.055 1.00044,2.1601 -2.16059,1.001 -1.00044,-2.1601 z m 43.79576,0.121 1.0015,2.1621 -2.16058,1.001 -1.00201,-2.1622 z m -37.88346,0.055 1.00147,2.1622 -2.16006,1.0004 -1.002,-2.1616 z m 5.91486,0.1762 1.001,2.1601 -2.16008,1.001 -1.00097,-2.1606 z m 5.91336,0.1768 1.00097,2.1601 -2.16061,1.0009 -1.00097,-2.16 z m 17.74103,0.5292 1.00097,2.16 -2.16059,1.001 -1.00097,-2.1601 z m -37.88347,0.055 1.00098,2.1601 -2.16009,1.001 -1.00097,-2.1606 z m 43.79577,0.121 1.0015,2.1621 -2.16009,1.0005 -1.0015,-2.1622 z m -37.8809,0.054 1.0015,2.1621 -2.16008,1.0005 -1.00201,-2.1622 z m 5.91333,0.1767 1.00047,2.1606 -2.16059,1.001 -1.00047,-2.1606 z m 5.91283,0.1773 1.00097,2.16 -2.16059,1.001 -1.00046,-2.16 z m 5.91436,0.1746 1.00201,2.1622 -2.16059,1.001 -1.0015,-2.1622 z m 17.74103,0.5292 1.0015,2.1622 -2.16008,1.0004 -1.00148,-2.1621 z m -37.88296,0.055 1.0015,2.1616 -2.16059,1.0015 -1.0015,-2.1621 z m 5.91283,0.1767 1.00097,2.1606 -2.16009,1.0005 -1.00097,-2.1601 z m 5.91539,0.1762 1.00097,2.1601 -2.16058,1.001 -1.00045,-2.1601 z m 5.91283,0.1757 1.00148,2.1622 -2.16059,1.001 -1.00148,-2.1622 z m 17.74103,0.5292 1.0015,2.1616 -2.16059,1.001 -1.002,-2.1616 z m -37.88347,0.055 1.00148,2.1616 -2.16006,1.001 -1.002,-2.1622 z m 43.7963,0.1219 1.00044,2.1606 -2.16006,1.0005 -1.00047,-2.1601 z m -37.88143,0.054 1.001,2.1606 -2.16009,1.0004 -1.00097,-2.16 z m 5.91336,0.1772 1.00097,2.1601 -2.16061,1.001 -1.00098,-2.1601 z m 5.9123,0.1757 1.002,2.1622 -2.16059,1.0004 -1.0015,-2.1616 z m 5.91539,0.1762 1.00097,2.1601 -2.16058,1.001 -1.00047,-2.1601 z m 17.74103,0.5287 1.00047,2.1606 -2.16009,1.0004 -1.00044,-2.16 z m -37.88296,0.055 1.00047,2.16 -2.16059,1.001 -1.00047,-2.16 z m 5.91283,0.1772 1.00097,2.1601 -2.16059,1.001 -1.00047,-2.1601 z m 5.91436,0.1747 1.002,2.1621 -2.16058,1.001 -1.0015,-2.1621 z m 5.91333,0.1767 1.00097,2.1606 -2.16058,1.001 -1.00098,-2.1601 z m 17.74103,0.5292 1.00097,2.1601 -2.16059,1.0009 -1.00097,-2.16 z m -37.88347,0.055 1.00098,2.16 -2.16009,1.001 -1.00097,-2.16 z m 5.9154,0.1762 1.00097,2.1601 -2.16059,1.0009 -1.00044,-2.16 z m 5.91283,0.1757 1.00147,2.1621 -2.16059,1.001 -1.00147,-2.1622 z m 5.9128,0.1772 1.00097,2.1601 -2.16059,1.0005 -1.00044,-2.1601 z m 5.91542,0.1763 1.00044,2.16 -2.16008,1.0005 -1.00044,-2.1601 z m -20.14244,0.5834 1.00098,2.1601 -2.16062,1.0009 -1.00097,-2.1601 z m 5.9123,0.1757 1.00201,2.1621 -2.16062,1.0005 -1.00147,-2.1622 z m 5.9154,0.1762 1.00097,2.1601 -2.16059,1.0004 -1.00047,-2.16 z m 5.91333,0.1767 1.00097,2.1606 -2.16058,1.001 -1.00098,-2.1606 z m -20.14244,0.584 1.00097,2.1601 -2.16058,1.0009 -1.00047,-2.1606 z m 5.91437,0.1746 1.002,2.1622 -2.16059,1.0004 -1.0015,-2.1616 z m 5.91333,0.1768 1.00097,2.1606 -2.16059,1.0009 -1.00097,-2.1605 z m 5.91333,0.1772 1.00047,2.1601 -2.16009,1.001 -1.00044,-2.1601 z m 5.91436,0.1747 1.0015,2.1621 -2.16008,1.001 -1.00147,-2.1621 z m -20.14191,0.5834 1.00148,2.1622 -2.16059,1.0009 -1.00147,-2.1616 z m 5.91281,0.1773 1.00097,2.1605 -2.16059,1.0005 -1.00044,-2.1601 z m 5.91542,0.1762 1.00044,2.1601 -2.16008,1.0009 -1.00045,-2.1601 z m 5.9128,0.1757 1.0015,2.1621 -2.16059,1.001 -1.00203,-2.1621 z m -20.14294,0.5839 1.002,2.1622 -2.16061,1.0004 -1.00147,-2.1621 z m 5.9154,0.1757 1.00097,2.1606 -2.16059,1.0005 -1.00047,-2.1601 z m 5.91333,0.1773 1.00097,2.1601 -2.16059,1.0009 -1.00097,-2.1601 z m 5.9123,0.1757 1.00147,2.1621 -2.16006,1.001 -1.0015,-2.1621 z m 5.91539,0.1762 1.00047,2.1601 -2.16008,1.0009 -1.00047,-2.16 z m -20.14244,0.5834 1.00098,2.1601 -2.16059,1.001 -1.00097,-2.1601 z m 5.91334,0.1773 1.00047,2.1601 -2.16009,1.0009 -1.00047,-2.1601 z m 5.91436,0.1746 1.0015,2.1622 -2.16008,1.0004 -1.00148,-2.1616 z m 5.91333,0.1773 1.00097,2.16 -2.16058,1.001 -1.00098,-2.16 z m -14.22701,0.7596 1.00044,2.1601 -2.16009,1.001 -1.00044,-2.1601 z m 5.9128,0.1757 1.0015,2.1622 -2.16059,1.0009 -1.00203,-2.1621 z m 5.91283,0.1773 1.00044,2.16 -2.16006,1.0005 -1.00047,-2.1601 z"
         style="opacity:0.5;fill:#818181;fill-opacity:1;stroke:none;stroke-width:0.28082436;stroke-opacity:1"
         inkscape:connector-curvature="0" />
    </g>
  </g>
</svg>
